# xmcd
#
# Track frame offsets:
#	150
#	20252
#	41464
#	58254
#	76364
#	93430
#	110274
#	128417
#	145153
#	162081
#	179363
#	194521
#	210621
#	228467
#	245965
#	261945
#	279917
#
# Disc length: 3931 seconds
#
# Revision: 1
# Processed by: cddbd v1.5.2PL0 Copyright (c) Steve Scherf et al.
# Submitted via: audiograbber 1.83.01
#
DISCID=eb0f5911
DTITLE=Compilation - CB 5147-01
DYEAR=2011
DGENRE=Karaoke
TTITLE0=Brad Paisley ftg. Alabama - Old Alabama
TTITLE1=Taylor Swift - The Story Of Us
TTITLE2=Billy Currington - Love Done Gone
TTITLE3=Blake Shelton - God Gave Me You
TTITLE4=Rascal Flatts ftg. Natasha Bedingfield - Easy
TTITLE5=Trace Adkins - Just Fishin'
TTITLE6=Martina McBride - I'm Gonna Love You Through It
TTITLE7=Rodney Adkins - Take A Back Road
TTITLE8=Brantley Gilbert - Country Must Be Country Wide
TTITLE9=Reba McEntire - When Love Gets A  Hold Of You
TTITLE10=Dierks Bentley - Am I The Only One
TTITLE11=Zac Brown Band ftg. Jimmy Buffett - Knee Deep
TTITLE12=The Band Perry - All Your Life
TTITLE13=Luke Bryan - I Don't Want This Night To End
TTITLE14=Joe Nichols - Take It Off
TTITLE15=Jesse Lee - Like My Mother Does
TTITLE16=Lady Antebellum - We Owned The Night
EXTD=
EXTT0=
EXTT1=
EXTT2=
EXTT3=
EXTT4=
EXTT5=
EXTT6=
EXTT7=
EXTT8=
EXTT9=
EXTT10=
EXTT11=
EXTT12=
EXTT13=
EXTT14=
EXTT15=
EXTT16=
PLAYORDER=
